<svg width="1214" height="301" viewBox="0 0 1214 301" fill="none" xmlns="http://www.w3.org/2000/svg">
<g clip-path="url(#clip0_3445_789)">
<path d="M0 73.02C0 114.08 16.31 153.46 45.34 182.5C74.38 211.53 113.76 227.84 154.82 227.84C195.88 227.84 235.26 211.53 264.29 182.5C293.32 153.46 309.63 114.08 309.63 73.02H154.82H0Z" fill="#0062FF"/>
<path d="M387.349 300.14H333.629V59.8099H383.409V86.3199H385.209C394.879 66.9799 415.649 56.23 442.509 56.23C493.369 56.23 519.869 93.1199 519.869 150.07C519.869 206.66 492.299 243.55 443.589 243.55C414.929 243.55 397.379 231.73 389.149 216.33H387.349V300.14ZM387.349 164.4C387.349 188.75 401.319 197.71 426.749 197.71C457.909 197.71 466.149 182.66 466.149 150.07C466.149 117.12 457.909 102.08 426.749 102.08C401.319 102.08 387.349 111.03 387.349 135.39V164.4ZM629.389 243.55C567.429 243.55 539.129 207.38 539.129 150.43C539.129 92.7699 573.519 56.23 629.749 56.23C683.829 56.23 715.709 88.47 715.709 135.39C715.709 145.42 714.279 155.8 713.199 161.89H589.629C590.709 186.96 600.739 196.99 630.109 196.99C651.599 196.99 660.909 192.33 660.909 181.23V179.08H713.919V182.66C713.919 220.99 680.969 243.55 629.389 243.55ZM627.959 100.29C602.169 100.29 592.139 110.32 589.989 129.3H664.129C665.209 110.67 653.029 100.29 627.959 100.29ZM791.239 239.97H737.869V59.8099H787.649V91.33H789.799C799.469 70.92 818.809 56.23 850.329 56.23C897.249 56.23 917.309 87.39 917.309 125.72V239.97H863.579V136.46C863.579 111.39 855.349 102.44 828.129 102.44C802.339 102.44 791.239 110.67 791.239 137.89V239.97ZM998.559 239.97H945.199V0H998.559V239.97ZM1062.12 300.86C1049.94 300.86 1036.69 298.71 1029.17 296.92V252.51H1059.25C1072.86 252.51 1077.88 250.71 1083.25 239.25L1086.47 232.45L1010.9 59.8099H1070.71L1100.08 135.03L1112.98 169.77H1116.92L1128.02 135.03L1153.45 59.8099H1213.26L1133.03 252.51C1117.63 289.4 1097.58 300.86 1062.12 300.86Z" fill="white"/>
</g>
<defs>
<clipPath id="clip0_3445_789">
<rect width="1213.26" height="300.86" fill="white"/>
</clipPath>
</defs>
</svg>
