<svg xmlns="http://www.w3.org/2000/svg" fill="none" height="100%" overflow="visible" preserveAspectRatio="none" style="display: block;" viewBox="0 0 103 48" width="100%" aria-label="remix logo" role="img">
<g clip-path="url(#clip0_0_12940)" id="logo-container">
<g id="remix_logo_text">
<path d="M31.9955 19.2002C31.9883 19.2012 31.9811 19.1994 31.9751 19.1953C31.9692 19.1911 31.965 19.1849 31.9635 19.1778C31.2446 16.3496 29.602 13.8413 27.2955 12.0497C24.9889 10.2581 22.1501 9.28542 19.2278 9.28542C16.3056 9.28542 13.4667 10.2581 11.1602 12.0497C8.85366 13.8413 7.21107 16.3496 6.49218 19.1778C6.49064 19.1849 6.48648 19.1911 6.48054 19.1953C6.4746 19.1994 6.46732 19.2012 6.46013 19.2002C5.59165 19.2002 2.88364 19.3122 2.88364 21.6098C2.88364 24.349 3.20412 26.7298 4.80649 28.1122C5.49871 28.7042 6.66844 28.8482 7.77728 28.8226C8.4707 28.8005 9.16156 28.7278 9.84434 28.605C9.84972 28.6046 9.85487 28.6027 9.85922 28.5995C9.86356 28.5963 9.86693 28.592 9.86893 28.587C9.87093 28.582 9.87149 28.5765 9.87054 28.5712C9.8696 28.5659 9.86718 28.561 9.86357 28.557C8.65358 26.7311 8.00929 24.5897 8.01123 22.4002C8.01123 22.3682 8.01123 22.333 8.01123 22.301C8.01123 19.3306 9.19298 16.4818 11.2965 14.3814C13.4 12.281 16.253 11.101 19.2278 11.101C22.2027 11.101 25.0556 12.281 27.1592 14.3814C29.2627 16.4818 30.4444 19.3306 30.4444 22.301C30.4444 22.333 30.4444 22.3682 30.4444 22.4002C30.4464 24.5897 29.8021 26.7311 28.5921 28.557C28.5885 28.561 28.5861 28.5659 28.5851 28.5712C28.5842 28.5765 28.5847 28.582 28.5867 28.587C28.5887 28.592 28.5921 28.5963 28.5964 28.5995C28.6008 28.6027 28.6059 28.6046 28.6113 28.605C29.2941 28.7278 29.985 28.8005 30.6784 28.8226C31.7872 28.8482 32.957 28.7042 33.6492 28.1122C35.2515 26.7458 35.572 24.349 35.572 21.6098C35.572 19.3122 32.864 19.2002 31.9955 19.2002Z" fill="var(--fill-0, #64C4FF)" id="Vector"></path>
<path d="M19.2278 31.6801L10.7032 28.8417C10.6961 28.839 10.6883 28.8389 10.6811 28.8414C10.674 28.8439 10.6679 28.8488 10.6641 28.8554C10.6603 28.8619 10.6589 28.8696 10.6601 28.877C10.6614 28.8845 10.6653 28.8912 10.6711 28.8961L19.2054 37.4177C19.2113 37.4236 19.2194 37.4268 19.2278 37.4268C19.2362 37.4268 19.2442 37.4236 19.2502 37.4177L27.7845 28.8961C27.7903 28.8912 27.7941 28.8845 27.7954 28.877C27.7967 28.8696 27.7953 28.8619 27.7915 28.8554C27.7876 28.8488 27.7816 28.8439 27.7744 28.8414C27.7673 28.8389 27.7595 28.839 27.7524 28.8417L19.2278 31.6801Z" fill="var(--fill-0, #64C4FF)" id="Vector_2"></path>
<path d="M26.8164 23.0078L28.8418 22.3998C28.8489 22.399 28.8554 22.3956 28.8602 22.3903C28.8649 22.385 28.8675 22.3781 28.8675 22.371C28.8618 21.6224 28.7682 20.877 28.5886 20.1502C28.5868 20.1436 28.5832 20.1377 28.578 20.1331C28.5729 20.1286 28.5666 20.1256 28.5598 20.1246L26.4992 19.939C26.4924 19.939 26.4859 19.9369 26.4804 19.933C26.475 19.929 26.4709 19.9235 26.4687 19.9171C26.4666 19.9107 26.4666 19.9039 26.4686 19.8975C26.4706 19.891 26.4745 19.8854 26.4799 19.8814L28.0118 18.5438C28.0149 18.5379 28.0165 18.5313 28.0165 18.5246C28.0165 18.5179 28.0149 18.5113 28.0118 18.5054C27.6996 17.8143 27.3069 17.1624 26.8421 16.563C26.837 16.5591 26.8308 16.557 26.8244 16.557C26.8181 16.557 26.8119 16.5591 26.8068 16.563L24.9128 17.203C24.9068 17.2049 24.9004 17.205 24.8943 17.2033C24.8882 17.2016 24.8828 17.1981 24.8787 17.1934C24.8746 17.1886 24.872 17.1827 24.8712 17.1764C24.8704 17.1702 24.8715 17.1638 24.8743 17.1582L25.698 15.3598C25.7017 15.3541 25.7037 15.3474 25.7037 15.3406C25.7037 15.3338 25.7017 15.3271 25.698 15.3214C25.1294 14.8076 24.501 14.3639 23.8264 13.9998C23.8213 13.9959 23.8151 13.9938 23.8088 13.9938C23.8024 13.9938 23.7962 13.9959 23.7911 13.9998L22.3586 15.3214C22.3541 15.3258 22.3485 15.3288 22.3423 15.33C22.3362 15.3312 22.3298 15.3305 22.324 15.3281C22.3182 15.3258 22.3132 15.3217 22.3097 15.3165C22.3062 15.3114 22.3042 15.3053 22.3041 15.299L22.333 13.379C22.3333 13.3719 22.3313 13.365 22.3272 13.3592C22.3232 13.3534 22.3173 13.3491 22.3106 13.347C21.5838 13.103 20.8309 12.9451 20.0672 12.8766C20.0602 12.8763 20.0532 12.8783 20.0474 12.8823C20.0416 12.8864 20.0373 12.8923 20.0352 12.899L19.2725 14.6718C19.2698 14.6772 19.2657 14.6818 19.2606 14.685C19.2555 14.6882 19.2496 14.6898 19.2436 14.6898C19.2376 14.6898 19.2317 14.6882 19.2266 14.685C19.2215 14.6818 19.2174 14.6772 19.2148 14.6718L18.4552 12.899C18.452 12.8926 18.4469 12.8873 18.4406 12.8839C18.4343 12.8805 18.4271 12.879 18.42 12.8798C17.656 12.9477 16.9029 13.1067 16.1767 13.3534C16.1704 13.3562 16.165 13.3607 16.1611 13.3663C16.1571 13.372 16.1548 13.3785 16.1542 13.3854L16.1799 15.3214C16.181 15.3277 16.1799 15.3342 16.1768 15.3399C16.1738 15.3455 16.1689 15.35 16.163 15.3526C16.1571 15.3552 16.1505 15.3557 16.1443 15.3541C16.1381 15.3525 16.1325 15.3489 16.1286 15.3438L14.6769 14.003C14.6711 13.9993 14.6645 13.9973 14.6576 13.9973C14.6508 13.9973 14.6441 13.9993 14.6384 14.003C13.9647 14.367 13.3374 14.8107 12.77 15.3246C12.7663 15.3303 12.7643 15.337 12.7643 15.3438C12.7643 15.3506 12.7663 15.3573 12.77 15.363L13.6001 17.155C13.6019 17.1609 13.6022 17.1672 13.6008 17.1733C13.5994 17.1793 13.5965 17.1849 13.5923 17.1895C13.588 17.194 13.5827 17.1974 13.5767 17.1992C13.5708 17.201 13.5645 17.2012 13.5584 17.1998L11.6676 16.5598C11.6619 16.5561 11.6552 16.5541 11.6484 16.5541C11.6415 16.5541 11.6349 16.5561 11.6291 16.5598C11.1675 17.1607 10.7781 17.8138 10.469 18.5054C10.4653 18.5111 10.4633 18.5178 10.4633 18.5246C10.4633 18.5314 10.4653 18.5381 10.469 18.5438L12.0041 19.8846C12.0084 19.8889 12.0113 19.8943 12.0127 19.9001C12.014 19.906 12.0136 19.9121 12.0116 19.9178C12.0096 19.9235 12.006 19.9285 12.0013 19.9323C11.9966 19.936 11.9909 19.9383 11.9849 19.939L9.93384 20.131C9.92732 20.1314 9.92106 20.1337 9.9159 20.1377C9.91075 20.1417 9.90694 20.1472 9.90499 20.1534C9.72105 20.8797 9.62316 21.6251 9.61336 22.3742C9.61304 22.3813 9.61506 22.3882 9.61912 22.394C9.62318 22.3998 9.62904 22.4041 9.6358 22.4062L11.6644 23.0398C11.6698 23.0424 11.6744 23.0465 11.6776 23.0516C11.6808 23.0567 11.6825 23.0626 11.6825 23.0686C11.6825 23.0746 11.6808 23.0805 11.6776 23.0856C11.6744 23.0907 11.6698 23.0948 11.6644 23.0974L9.79283 24.1406C9.78866 24.152 9.78866 24.1644 9.79283 24.1758C9.93137 24.9207 10.1573 25.6468 10.4658 26.339C10.5684 26.5662 10.6805 26.787 10.7863 27.0046C10.7926 27.0066 10.7993 27.0066 10.8055 27.0046L19.2276 29.811L27.6689 27.0014C27.673 27.0002 27.6768 26.9981 27.6801 26.9953C27.6834 26.9926 27.6861 26.9892 27.6881 26.9854C28.1656 26.0954 28.5019 25.1368 28.6848 24.1438C28.6863 24.137 28.6856 24.1299 28.6827 24.1235C28.6798 24.1172 28.6749 24.1119 28.6688 24.1086L26.8004 23.0654C26.7952 23.0615 26.7913 23.0562 26.7891 23.0501C26.787 23.044 26.7868 23.0373 26.7886 23.0311C26.7903 23.0248 26.7939 23.0193 26.7989 23.0151C26.8038 23.011 26.81 23.0084 26.8164 23.0078Z" fill="var(--fill-0, #64C4FF)" id="Vector_3"></path>
<path d="M52.5571 31.0179V31.0787H51.0252L47.1795 25.3987H44.0741V31.0787H42.7409V17.3859H47.923C50.365 17.3859 52.3007 19.1363 52.3007 21.4115C52.3007 23.4659 50.8874 24.9955 48.6505 25.3379L52.5571 31.0179ZM47.8685 24.1923C49.7914 24.1923 50.9739 23.0627 50.9739 21.4307C50.9739 19.7987 49.7241 18.5923 47.9262 18.5923H44.0805V24.1923H47.8685Z" fill="var(--fill-0, #64C4FF)" id="Vector_4"></path>
<path d="M63.719 29.8691V31.0787H55.3482V17.3859H63.5363V18.5923H56.6814V23.4659H62.7095V24.6403H56.6814V29.8563L63.719 29.8691Z" fill="var(--fill-0, #64C4FF)" id="Vector_5"></path>
<path d="M80.8002 31.0786H79.5183L78.1948 21.6322C78.124 21.1859 78.077 20.7362 78.0538 20.285C77.791 20.7266 77.5506 21.1298 77.3071 21.5138L73.4614 27.6962H73.1601L69.3144 21.4722C69.0933 21.1298 68.8497 20.7266 68.6094 20.3234C68.5677 20.7874 68.4876 21.2322 68.4267 21.6322L67.1064 31.0786H65.7956L67.7537 17.2802H68.1543L72.4519 24.2466C72.7339 24.6914 73.0159 25.1522 73.2979 25.6962C73.5799 25.1522 73.862 24.6914 74.144 24.2274L78.4608 17.2802H78.8357L80.8002 31.0786Z" fill="var(--fill-0, #64C4FF)" id="Vector_6"></path>
<path d="M84.0081 17.3859H85.3381V31.0787H84.0081V17.3859Z" fill="var(--fill-0, #64C4FF)" id="Vector_7"></path>
<path d="M87.7581 31.0403L92.8216 23.9715L88.1844 17.4243V17.3859H89.7322L92.2736 20.9507C92.7159 21.5907 93.1805 22.2563 93.6228 22.9827C94.0875 22.2371 94.5297 21.5523 94.9752 20.9091L97.4749 17.3891H98.9875V17.4275L94.3535 23.9683L99.417 31.0403V31.0819H97.8819L94.9399 26.9219C94.4945 26.2819 94.0298 25.6419 93.6068 24.9475C93.1453 25.6739 92.7191 26.2979 92.2576 26.9411L89.2932 31.1011H87.7581V31.0403Z" fill="var(--fill-0, #64C4FF)" id="Vector_8"></path>
</g>
</g>
<defs>
<clipPath id="clip0_0_12940">
<rect fill="white" height="48" width="102.642"></rect>
</clipPath>
</defs>
</svg>